HIERARCHY
ROOT Hips
{
	OFFSET 0.000000 0.000000 0.000000
	CHANNELS 6 Xposition Yposition Zposition Zrotation Yrotation Xrotation 
	JOINT LHipJoint
	{
		OFFSET 0.000000 0.000000 0.000000
		CHANNELS 3 Zrotation Yrotation Xrotation
		JOINT LeftUpLeg
		{
			OFFSET 1.363060 -1.794630 0.839290
			CHANNELS 3 Zrotation Yrotation Xrotation
			JOINT LeftLeg
			{
				OFFSET 2.448110 -6.726130 0.000000
				CHANNELS 3 Zrotation Yrotation Xrotation
				JOINT LeftFoot
				{
					OFFSET 2.562200 -7.039590 0.000000
					CHANNELS 3 Zrotation Yrotation Xrotation
					JOINT LeftToeBase
					{
						OFFSET 0.157640 -0.433110 2.322550
						CHANNELS 3 Zrotation Yrotation Xrotation
						End Site
						{
							OFFSET 0.000000 0.000000 0.000000
						}
					}
				}
			}
		}
	}
	JOINT RHipJoint
	{
		OFFSET 0.000000 0.000000 0.000000
		CHANNELS 3 Zrotation Yrotation Xrotation
		JOINT RightUpLeg
		{
			OFFSET -1.305520 -1.794630 0.839290
			CHANNELS 3 Zrotation Yrotation Xrotation
			JOINT RightLeg
			{
				OFFSET -2.542530 -6.985550 0.000000
				CHANNELS 3 Zrotation Yrotation Xrotation
				JOINT RightFoot
				{
					OFFSET -2.568260 -7.056230 0.000000
					CHANNELS 3 Zrotation Yrotation Xrotation
					JOINT RightToeBase
					{
						OFFSET -0.164730 -0.452590 2.363150
						CHANNELS 3 Zrotation Yrotation Xrotation
						End Site
						{
							OFFSET 0.000000 0.000000 0.000000
						}
					}
				}
			}
		}
	}
	JOINT LowerBack
	{
		OFFSET 0.000000 0.000000 0.000000
		CHANNELS 3 Zrotation Yrotation Xrotation
		JOINT Spine
		{
			OFFSET 0.028270 2.035590 -0.193380
			CHANNELS 3 Zrotation Yrotation Xrotation
			JOINT Spine1
			{
				OFFSET 0.056720 2.048850 -0.042750
				CHANNELS 3 Zrotation Yrotation Xrotation
				JOINT Neck
				{
					OFFSET 0.000000 0.000000 0.000000
					CHANNELS 3 Zrotation Yrotation Xrotation
					JOINT Neck1
					{
						OFFSET -0.054170 1.746240 0.172020
						CHANNELS 3 Zrotation Yrotation Xrotation
						JOINT Head
						{
							OFFSET 0.104070 1.761360 -0.123970
							CHANNELS 3 Zrotation Yrotation Xrotation
							End Site
							{
								OFFSET 0.000000 0.000000 0.000000
							}
						}
					}
				}
				JOINT LeftShoulder
				{
					OFFSET 0.000000 0.000000 0.000000
					CHANNELS 3 Zrotation Yrotation Xrotation
					JOINT LeftArm
					{
						OFFSET 3.362410 1.200890 -0.311210
						CHANNELS 3 Zrotation Yrotation Xrotation
						JOINT LeftForeArm
						{
							OFFSET 4.983000 -0.000000 -0.000000
							CHANNELS 3 Zrotation Yrotation Xrotation
							JOINT LeftHand
							{
								OFFSET 3.483560 -0.000000 -0.000000
								CHANNELS 3 Zrotation Yrotation Xrotation
								JOINT LeftFingerBase
								{
									OFFSET 0.000000 0.000000 0.000000
									CHANNELS 3 Zrotation Yrotation Xrotation
									JOINT LeftHandIndex1
									{
										OFFSET 0.715260 -0.000000 -0.000000
										CHANNELS 3 Zrotation Yrotation Xrotation
										End Site
										{
											OFFSET 0.000000 0.000000 0.000000
										}
									}
								}
								JOINT LThumb
								{
									OFFSET 0.000000 0.000000 0.000000
									CHANNELS 3 Zrotation Yrotation Xrotation
									End Site
									{
										OFFSET 0.000000 0.000000 0.000000
									}
								}
							}
						}
					}
				}
				JOINT RightShoulder
				{
					OFFSET 0.000000 0.000000 0.000000
					CHANNELS 3 Zrotation Yrotation Xrotation
					JOINT RightArm
					{
						OFFSET -3.136600 1.374050 -0.404650
						CHANNELS 3 Zrotation Yrotation Xrotation
						JOINT RightForeArm
						{
							OFFSET -5.241900 -0.000000 -0.000000
							CHANNELS 3 Zrotation Yrotation Xrotation
							JOINT RightHand
							{
								OFFSET -3.444170 -0.000000 -0.000000
								CHANNELS 3 Zrotation Yrotation Xrotation
								JOINT RightFingerBase
								{
									OFFSET 0.000000 0.000000 0.000000
									CHANNELS 3 Zrotation Yrotation Xrotation
									JOINT RightHandIndex1
									{
										OFFSET -0.622530 -0.000000 -0.000000
										CHANNELS 3 Zrotation Yrotation Xrotation
										End Site
										{
											OFFSET 0.000000 0.000000 0.000000
										}
									}
								}
								JOINT RThumb
								{
									OFFSET 0.000000 0.000000 0.000000
									CHANNELS 3 Zrotation Yrotation Xrotation
									End Site
									{
										OFFSET 0.000000 0.000000 0.000000
									}
								}
							}
						}
					}
				}
			}
		}
	}
}
MOTION
Frames: 4
Frame Time: 0.008333
1.246968 8.883680 -1.694904 3.201535 0.174686 -31.272867 -0.538628 -1.466940 -1.837483 -5.743671 9.619116 -62.194036 28.837293 17.996643 116.777765 2.620529 -22.706182 -14.490619 0.146300 -2.465300 -6.793500 2.682303 1.080334 -0.048848 5.171283 -1.252622 -67.658067 -29.257950 -15.973559 119.352826 -1.100422 3.537597 -9.297652 -2.151500 -9.174700 26.343400 -3.195646 1.602862 31.469080 0.049055 1.276086 6.968173 3.321777 0.098297 -4.656360 1.696412 4.442605 -10.109125 -2.354731 5.447742 6.060807 -1.847500 2.401100 4.838200 2.051473 4.953079 -0.603365 -91.354722 3.209245 42.487242 92.597878 -62.175988 -56.943886 0.595762 2.488816 -0.853419 29.807088 -28.271686 -16.232700 -7.125000 0.000000 0.000000 -1.306700 -4.921000 1.414400 -0.716066 -6.315546 -1.612423 82.080752 0.815773 45.996940 -88.874937 64.628509 -53.757023 1.491905 -1.279483 3.277285 -31.441627 -35.953682 19.932800 7.125000 0.000000 0.000000 -0.670400 -68.670800 0.380700 
1.247772 8.886091 -1.696310 3.194009 0.167272 -31.274229 -0.539480 -1.467164 -1.837468 -5.741462 9.611395 -62.169296 28.830662 18.000425 116.755795 2.620586 -22.693186 -14.485942 0.148500 -2.483300 -6.843500 2.682587 1.080927 -0.049835 5.182003 -1.253611 -67.629083 -29.250216 -15.978614 119.326189 -1.098205 3.527730 -9.287424 -2.141600 -9.155000 26.281400 -3.204443 1.594621 31.496937 0.038088 1.260504 7.005609 3.314144 0.088789 -4.622623 1.685548 4.439188 -10.187521 -2.271404 5.442984 6.114299 -1.818500 2.402900 4.864700 2.051856 4.954420 -0.604240 -91.340932 3.163152 42.448837 92.688991 -62.157969 -57.027707 0.594199 2.489757 -0.805571 29.817357 -28.236414 -16.226100 -7.125000 0.000000 0.000000 -1.292300 -4.888200 1.398000 -0.719602 -6.310475 -1.618156 82.117757 0.824025 46.216927 -89.401026 64.556890 -54.160031 1.507962 -1.274941 3.113282 -31.580871 -36.176995 20.138800 7.125000 0.000000 0.000000 -0.768500 -68.937500 0.441000 
1.247973 8.889105 -1.697315 3.227330 0.175406 -31.261044 -0.542538 -1.467844 -1.836675 -5.787004 9.594686 -62.157078 28.819411 18.005776 116.723622 2.617697 -22.685193 -14.461596 0.149700 -2.493100 -6.870500 2.684602 1.082346 -0.050681 5.135781 -1.253681 -67.649569 -29.245868 -15.979169 119.316135 -1.095855 3.543216 -9.193538 -2.175400 -9.222300 26.493200 -3.263846 1.600409 31.514054 0.020769 1.248239 7.025950 3.326248 0.081243 -4.605679 1.669459 4.429249 -10.156688 -2.181686 5.425100 6.108530 -1.790800 2.399900 4.854400 2.052337 4.952843 -0.606185 -91.330071 3.171430 42.429396 92.820204 -62.134232 -57.140761 0.592355 2.491666 -0.852543 29.782159 -28.219541 -16.196600 -7.125000 0.000000 0.000000 -1.308900 -4.861200 1.415500 -0.721731 -6.306199 -1.621470 82.137870 0.816329 46.345549 -89.719706 64.511480 -54.403976 1.518123 -1.272575 3.006827 -31.638504 -36.280761 20.230700 7.125000 0.000000 0.000000 -0.807600 -69.058700 0.465600 
1.246868 8.889105 -1.698320 3.269478 0.204860 -31.284870 -0.545929 -1.467786 -1.834685 -5.839193 9.586728 -62.133294 28.814426 18.008829 116.706711 2.623717 -22.676689 -14.493903 0.157100 -2.554100 -7.039700 2.687133 1.084043 -0.050894 5.060842 -1.263866 -67.667975 -29.247955 -15.976553 119.325648 -1.100774 3.576423 -9.188521 -2.172300 -9.216100 26.473800 -3.365840 1.625968 31.587908 0.015328 1.249875 7.043577 3.375627 0.079168 -4.617394 1.620566 4.414023 -10.125687 -2.068402 5.406528 6.132438 -1.750000 2.397300 4.851600 2.053676 4.953178 -0.607202 -91.357811 3.174983 42.436288 92.915750 -62.117238 -57.217184 0.592893 2.494137 -0.988636 29.704278 -28.270213 -16.166200 -7.125000 0.000000 0.000000 -1.366200 -4.892800 1.478200 -0.723070 -6.300950 -1.621840 82.153252 0.785694 46.331321 -89.838965 64.492960 -54.494550 1.523335 -1.273884 3.003717 -31.563979 -36.244678 20.164700 7.125000 0.000000 0.000000 -0.726200 -68.999400 0.417700 
